PathFileType	4	(X/Y/Z)	FAIDC1_INITIAL_WALK01.trc	
DataRate	CameraRate	NumFrames	NumMarkers	Units	OrigDataRate	OrigDataStartFrame	OrigNumFrames
100	100	4	49	mm	100	328	113
Frame#	Time	RSH			LSH			C7			LELB			LWR			RELB			RWR			RASI			LASI			SACR			P1			P2			P3			LTHLP			LTHLD			LTHAP			LTHAD			LLEPI			LPAT			LMEPI			LTIAP			LTIAD			LTILAT			LLMAL			LMMAL			LHEEL			LMFS			LMFL			LP5MT			LP1MT			LTOE			RTHLP			RTHLD			RTHAP			RTHAD			RLEPI			RPAT			RMEPI			RTIAP			RTIAD			RTILAT			RLMAL			RMMAL			RHEEL			RMFS			RMFL			RP5MT			RP1MT			RTOE			
		X1	Y1	Z1	X2	Y2	Z2	X3	Y3	Z3	X4	Y4	Z4	X5	Y5	Z5	X6	Y6	Z6	X7	Y7	Z7	X8	Y8	Z8	X9	Y9	Z9	X10	Y10	Z10	X11	Y11	Z11	X12	Y12	Z12	X13	Y13	Z13	X14	Y14	Z14	X15	Y15	Z15	X16	Y16	Z16	X17	Y17	Z17	X18	Y18	Z18	X19	Y19	Z19	X20	Y20	Z20	X21	Y21	Z21	X22	Y22	Z22	X23	Y23	Z23	X24	Y24	Z24	X25	Y25	Z25	X26	Y26	Z26	X27	Y27	Z27	X28	Y28	Z28	X29	Y29	Z29	X30	Y30	Z30	X31	Y31	Z31	X32	Y32	Z32	X33	Y33	Z33	X34	Y34	Z34	X35	Y35	Z35	X36	Y36	Z36	X37	Y37	Z37	X38	Y38	Z38	X39	Y39	Z39	X40	Y40	Z40	X41	Y41	Z41	X42	Y42	Z42	X43	Y43	Z43	X44	Y44	Z44	X45	Y45	Z45	X46	Y46	Z46	X47	Y47	Z47	X48	Y48	Z48	X49	Y49	Z49	

85	0.84000	1211.14514	1516.75610	215.21948	1205.80908	1527.55457	-135.45108	1126.98840	1553.65295	52.51811	1145.77588	1178.45801	-240.66031	1206.41260	933.58582	-262.47696	1182.28381	1175.76782	327.00580	1310.24048	954.28723	320.58466	1235.56726	1044.79956	176.84241	1234.23755	1043.41382	-98.04666	1059.04138	1116.75708	37.88312	1054.53076	1094.00720	-12.18741	1056.57825	1095.59534	90.69374	1038.36035	1030.32336	41.82991	1238.63281	761.06744	-154.43069	1273.57312	665.26733	-147.00729	1336.60254	794.43176	-100.52863	1362.47131	695.10071	-98.68515	1295.22363	549.63745	-132.20566	1383.76904	528.60583	-87.36716	1320.83472	544.59766	-10.94250	1243.95215	417.39957	-59.43112	1141.91711	339.77014	-49.56259	1155.18982	418.85458	-132.26736	988.48340	270.62152	-94.52298	1030.54285	262.46640	-7.01642	935.90118	311.56125	-48.45081	1045.83435	190.72868	-34.82813	999.34491	202.36398	-102.29913	1018.77655	136.92119	-118.11664	1045.80371	106.59679	-7.02473	1082.89551	73.42699	-40.00516	1206.48120	748.69208	207.68893	1210.00610	635.56866	179.22858	1295.56250	759.98248	144.16660	1291.10718	652.48340	118.65327	1207.60730	526.95721	163.80850	1290.85132	535.88873	102.25592	1207.29639	531.10199	35.90224	1241.98145	396.12735	80.28415	1211.86755	250.12036	65.35999	1160.02527	329.92389	162.10452	1144.68713	97.98060	103.12305	1170.61914	120.46186	13.34166	1078.42627	90.99354	59.41519	1247.64868	95.89703	57.64272	1216.60901	69.29333	112.26122	1272.19873	48.41474	125.08071	1317.77686	58.07103	24.72861	1363.49426	47.36928	47.17493	
86	0.85000	1223.78796	1518.37524	215.33412	1218.17310	1528.71631	-135.16595	1139.61804	1554.85767	52.90968	1153.75940	1180.81372	-241.31607	1210.31543	935.07410	-264.88330	1197.76086	1177.60144	327.82629	1332.35669	960.11090	318.82532	1246.96631	1045.45569	177.66763	1246.48047	1044.81140	-97.23416	1070.93970	1117.93372	38.19710	1066.58521	1095.42334	-11.95929	1068.37256	1096.82800	90.91481	1050.21680	1031.72095	41.94194	1255.92407	764.50854	-154.63010	1293.30762	669.44659	-147.04697	1352.65283	800.00201	-99.24423	1380.76733	701.30188	-97.75031	1317.16248	553.75226	-131.81934	1406.63611	535.63184	-86.97290	1342.54419	549.60394	-10.53439	1269.97729	420.65305	-59.41684	1171.34802	339.66019	-48.35648	1181.37158	418.13510	-131.86777	1019.92670	264.51251	-94.18863	1062.71252	257.29883	-6.40941	965.52374	302.04291	-47.31125	1081.55811	187.02946	-34.67413	1034.27002	196.69447	-101.77652	1057.21777	132.67064	-118.57053	1085.46838	102.14996	-7.86491	1125.00977	72.11208	-40.78470	1213.96533	749.15179	207.75645	1215.13989	635.88623	179.59447	1303.17102	758.87823	144.26996	1296.65552	651.48267	118.81111	1210.69714	527.16010	164.05014	1294.08032	535.09015	102.70557	1210.58032	531.32007	36.18651	1243.69067	395.61578	80.26154	1213.05872	250.15860	65.55960	1161.73547	330.35291	162.16331	1144.93762	98.46052	103.04799	1171.27966	120.90844	13.27231	1078.59790	91.81262	59.36552	1248.05847	95.98685	57.81277	1216.74109	69.33286	112.26575	1272.23792	48.31257	125.06290	1317.96887	58.01773	24.84082	1363.70630	47.17048	47.29126	
87	0.86000	1236.38342	1519.72998	215.46803	1230.42407	1529.58594	-134.89313	1152.23108	1555.75354	53.22511	1161.66504	1182.96021	-242.14993	1214.50513	936.47290	-267.23004	1213.06750	1179.19482	328.67807	1354.28003	965.90607	316.96341	1258.20642	1045.81775	178.40343	1258.71460	1045.92529	-96.49619	1082.49353	1119.17273	38.25946	1078.65564	1096.60071	-11.82123	1080.12219	1097.81018	91.03561	1062.05054	1032.80127	41.92764	1273.17566	767.70282	-155.00165	1312.44519	673.52734	-147.26764	1367.99951	804.85889	-97.85306	1398.48022	707.05927	-96.58841	1338.35425	557.60388	-131.37958	1428.02917	542.21454	-86.59665	1363.29614	554.38397	-9.97281	1295.55579	423.13644	-59.44342	1200.21790	338.30212	-48.29166	1207.36377	416.81461	-131.51016	1052.11682	256.79236	-93.33850	1095.39819	251.44148	-5.85181	995.77136	291.44318	-46.30948	1117.60327	182.72566	-34.40271	1070.09973	190.38641	-101.80283	1096.30396	127.67180	-118.89999	1126.21936	97.74493	-8.08000	1167.70667	70.58220	-41.82697	1221.34985	749.54926	207.99951	1220.20337	636.13989	179.98892	1310.71277	757.77600	144.37946	1302.08130	650.38403	118.89211	1213.86670	527.37018	164.40967	1297.35889	534.27142	103.15065	1213.87988	531.54004	36.48851	1246.43347	396.06165	81.11621	1214.46667	250.45671	65.82874	1163.18750	330.91891	162.25131	1145.16492	98.93752	102.94926	1171.76318	121.25663	13.53287	1078.89160	92.59411	59.10976	1248.49438	96.08747	57.91273	1216.82300	69.38354	112.30099	1272.25330	48.22190	125.06939	1318.12231	57.97966	24.95663	1363.87854	46.93988	47.43631	
88	0.87000	1249.04761	1520.76428	215.58627	1242.68152	1530.17456	-134.66199	1164.85901	1556.41150	53.50890	1169.46619	1184.93787	-243.14157	1219.06934	937.89850	-269.54498	1228.29370	1180.53564	329.62756	1375.87646	971.70734	314.99994	1269.43848	1046.00427	179.09837	1270.92188	1046.69983	-95.75946	1094.46533	1119.97302	38.49323	1090.70557	1097.43750	-11.71603	1091.87170	1098.57593	91.15756	1073.84192	1033.62585	41.88541	1289.43420	770.55347	-155.34573	1331.07300	677.25824	-147.23813	1382.95715	809.36151	-96.48337	1415.69153	712.42828	-95.36996	1358.97583	560.99048	-130.76898	1449.19360	548.66937	-85.90491	1383.32324	558.72754	-9.74069	1321.80493	425.65283	-59.17804	1228.71460	334.90366	-49.15231	1233.21069	414.89975	-131.11813	1084.77454	248.15288	-92.63943	1128.73218	244.86627	-5.44119	1026.66467	279.61398	-45.37637	1154.40698	177.90646	-34.26468	1106.42334	183.28754	-101.46771	1136.07227	122.28442	-119.14484	1168.00293	93.83333	-9.05496	1210.83081	69.00388	-42.84457	1228.93665	749.84552	207.91808	1225.25488	636.35895	180.44901	1318.17297	756.57294	144.59215	1307.48181	649.35651	119.11354	1216.88391	527.53058	164.70834	1301.04468	533.90656	104.17401	1217.22815	531.75854	36.78032	1248.61267	395.91849	81.56744	1216.01892	250.85753	65.98779	1164.56873	331.40594	162.40207	1145.25867	99.40677	102.99074	1172.40479	121.63814	13.50494	1079.19141	93.14429	58.68738	1248.68823	96.12993	58.12457	1216.86621	69.41563	112.36560	1272.23474	48.13542	125.11732	1318.26245	57.94380	25.08495	1364.00562	46.68526	47.63522	
